<svg width="91" height="26" viewBox="0 0 91 26" fill="none" xmlns="http://www.w3.org/2000/svg">
<g clip-path="url(#clip0_14_73)">
<path d="M86.3009 22.6396C88.0767 22.6396 89.3346 22.3208 90.2718 21.634V18.5189C89.3099 19.1811 88.1507 19.5981 86.5229 19.5981C83.7851 19.5981 82.6505 17.4887 82.6505 14.1528C82.6505 10.6453 84.0317 8.85473 86.5475 8.85473C88.0274 8.85473 89.4826 9.36982 90.2472 9.86039V6.62265C89.4333 6.18114 88.0274 5.86227 86.1036 5.86227C81.1953 5.86227 78.6549 9.36982 78.6549 14.2755C78.6796 19.6472 81.1707 22.6396 86.3009 22.6396ZM62.3024 21.217V18.1019C61.1185 18.9113 59.096 19.6227 57.2462 19.6227C54.4344 19.6227 53.3738 18.2981 53.2012 15.6H62.475V13.5887C62.475 7.97171 59.9839 5.86227 56.1609 5.86227C51.4747 5.86227 49.2549 9.41888 49.2549 14.3C49.2549 19.917 52.042 22.6396 56.9255 22.6396C59.3673 22.6396 61.1678 21.9774 62.3024 21.217ZM27.1062 6.15661V12.534H21.976V6.15661H18.1284V22.3208H21.976V15.5755H27.1062V22.3208H30.9539V6.15661H27.1062ZM48.293 19.2793H46.5911V6.15661H35.3935V7.5302C35.3935 11.4793 35.1468 16.5811 33.7903 19.2793H32.5571V26H36.1087V22.3208H44.7166V26H48.2683V19.2793H48.293ZM74.5606 22.3208H78.9262L72.7601 13.6132L78.1863 6.15661H74.314L68.8878 13.6132V6.15661H65.0401V22.3208H68.8878V14.3736L74.5606 22.3208ZM56.0623 8.85473C57.9614 8.85473 58.5534 10.4245 58.5534 12.4604V12.7793H53.2012C53.2998 10.2038 54.2371 8.85473 56.0623 8.85473ZM42.7435 19.2793H37.3173C38.3779 16.851 38.6738 12.4359 38.6738 9.63963V9.14907H42.7435V19.2793Z" fill="white"/>
<path d="M14.922 22.3208H11.0003V3.01698H9.24917C6.04279 3.01698 4.36561 4.61132 4.36561 6.99057C4.36561 9.68868 5.52484 10.9396 7.91729 12.534L9.89044 13.8585L4.21762 22.3208H0L5.10554 14.766C2.17047 12.6811 0.517953 10.6453 0.517953 7.21132C0.517953 2.91887 3.52702 0 9.2245 0H14.8973L14.922 22.3208Z" fill="white"/>
</g>
<defs>
<clipPath id="clip0_14_73">
<rect width="90.5185" height="26" fill="white"/>
</clipPath>
</defs>
</svg>
